<?xml version="1.0" encoding="utf-8"?>
<!-- Generator: Adobe Illustrator 23.0.4, SVG Export Plug-In . SVG Version: 6.00 Build 0)  -->
<svg version="1.1" xmlns="http://www.w3.org/2000/svg" xmlns:xlink="http://www.w3.org/1999/xlink" x="0px" y="0px"
	 viewBox="0 0 289.56 42.52" style="enable-background:new 0 0 289.56 42.52;" xml:space="preserve">
<style type="text/css">
	.st0{fill:#E20074;}
</style>
<g id="Claim_INT">
	<polygon class="st0" points="286.56,27.35 288.05,27.35 289.53,27.35 289.53,30.32 286.56,30.32 	"/>
	<path class="st0" d="M280.12,23.52v2.24h2.36c-0.21,1.72-1.14,2.36-2.51,2.36c-1.95,0-2.94-1.47-2.94-4.25s1.04-4.25,2.88-4.25
		c1.14,0,1.97,0.62,2.26,1.59h2.78c-0.37-2.42-2.26-4.08-5.05-4.08c-3.58,0-5.59,2.61-5.59,6.75c0,4.14,1.9,6.75,5.65,6.75
		c3.27,0,5.18-2.11,5.18-6.38v-0.72H280.12z"/>
	<polygon class="st0" points="269.84,17.41 269.84,25.53 269.73,25.53 265.09,17.41 262.44,17.41 262.44,30.32 265.05,30.32 
		265.05,22.24 265.17,22.24 269.81,30.32 272.44,30.32 272.44,17.41 	"/>
	<polygon class="st0" points="257.3,30.32 259.91,30.32 259.91,17.41 258.6,17.41 257.3,17.41 	"/>
	<path class="st0" d="M252.9,30.32h2.9l-2.73-4.99c1.57-0.52,2.59-1.86,2.59-3.83c0-2.61-1.78-4.1-4.29-4.1h-4.78v12.92h2.61v-4.72
		h1.26L252.9,30.32z M249.2,19.82h2.03c1.03,0,1.72,0.6,1.72,1.68c0,1.08-0.7,1.68-1.72,1.68h-2.03V19.82z"/>
	<path class="st0" d="M242.94,30.32h2.65l-4.41-12.92h-2.61l-4.41,12.92h2.65l0.83-2.49h4.45L242.94,30.32z M238.46,25.39l1.35-4
		h0.12l1.35,4H238.46z"/>
	<polygon class="st0" points="230.56,17.41 230.56,22.55 225.94,22.55 225.94,17.41 223.33,17.41 223.33,30.32 225.94,30.32 
		225.94,24.97 230.56,24.97 230.56,30.32 233.17,30.32 233.17,17.41 	"/>
	<path class="st0" d="M217.34,30.61c2.44,0,4.35-1.45,4.35-4.04c0-1.86-1.2-3.27-3.11-3.77l-1.49-0.41
		c-0.72-0.19-1.32-0.52-1.32-1.43c0-0.91,0.68-1.41,1.57-1.41c1.01,0,1.55,0.48,1.72,1.45h2.55c-0.25-2.38-1.66-3.89-4.27-3.89
		c-2.4,0-4.23,1.55-4.23,4.02c0,1.62,0.81,3.11,2.88,3.67l1.49,0.42c1.01,0.27,1.55,0.68,1.55,1.49c0,0.83-0.56,1.45-1.68,1.45
		c-0.95,0-1.66-0.42-1.9-1.51h-2.59C213.08,29.22,214.67,30.61,217.34,30.61z"/>
	<path class="st0" d="M204.58,30.32h2.9l-2.73-4.99c1.57-0.52,2.59-1.86,2.59-3.83c0-2.61-1.78-4.1-4.29-4.1h-4.78v12.92h2.61v-4.72
		h1.26L204.58,30.32z M200.89,19.82h2.03c1.03,0,1.72,0.6,1.72,1.68c0,1.08-0.7,1.68-1.72,1.68h-2.03V19.82z"/>
	<path class="st0" d="M191,30.61c3.54,0,5.47-2.57,5.47-6.75s-1.93-6.75-5.47-6.75c-3.54,0-5.47,2.57-5.47,6.75
		S187.46,30.61,191,30.61z M191,28.12c-1.8,0-2.77-1.43-2.77-4.25s0.97-4.25,2.77-4.25c1.8,0,2.77,1.43,2.77,4.25
		S192.8,28.12,191,28.12z"/>
	<polygon class="st0" points="184.31,19.82 184.31,17.41 176.91,17.41 176.91,30.32 179.52,30.32 179.52,25.16 184.14,25.16 
		184.14,22.74 179.52,22.74 179.52,19.82 	"/>
	<path class="st0" d="M166.4,30.61c2.44,0,4.35-1.45,4.35-4.04c0-1.86-1.2-3.27-3.11-3.77l-1.49-0.41
		c-0.72-0.19-1.32-0.52-1.32-1.43c0-0.91,0.68-1.41,1.57-1.41c1.01,0,1.55,0.48,1.72,1.45h2.55c-0.25-2.38-1.66-3.89-4.27-3.89
		c-2.4,0-4.23,1.55-4.23,4.02c0,1.62,0.81,3.11,2.88,3.67l1.49,0.42c1.01,0.27,1.55,0.68,1.55,1.49c0,0.83-0.56,1.45-1.68,1.45
		c-0.95,0-1.66-0.42-1.9-1.51h-2.59C162.14,29.22,163.73,30.61,166.4,30.61z"/>
	<polygon class="st0" points="157.82,30.32 160.43,30.32 160.43,17.41 159.12,17.41 157.82,17.41 	"/>
	<polygon class="st0" points="151.17,19.82 151.17,17.41 143.57,17.41 143.57,30.32 151.17,30.32 151.17,27.91 146.18,27.91 
		146.18,24.97 150.98,24.97 150.98,22.55 146.18,22.55 146.18,19.82 	"/>
	<polygon class="st0" points="142.13,19.82 142.13,17.41 134.72,17.41 134.72,30.32 137.33,30.32 137.33,25.16 141.95,25.16 
		141.95,22.74 137.33,22.74 137.33,19.82 	"/>
	<polygon class="st0" points="129.58,30.32 132.19,30.32 132.19,17.41 130.89,17.41 129.58,17.41 	"/>
	<polygon class="st0" points="120.96,30.32 128.19,30.32 128.19,27.91 123.57,27.91 123.57,17.41 120.96,17.41 	"/>
</g>
<g id="_x31_-T-3_Logo">
	<polygon class="st0" points="82.12,19.56 86.53,19.56 86.53,28.17 77.92,28.17 77.92,19.56 	"/>
	<polygon class="st0" points="52.09,19.56 52.09,28.17 60.7,28.17 60.7,19.56 56.51,19.56 	"/>
	<polygon class="st0" points="26.26,19.56 26.26,28.17 34.87,28.17 34.87,19.56 30.45,19.56 	"/>
	<path class="st0" d="M0.43,0L0,15l2.26,0.39c0.42-4.42,1.58-7.7,3.48-9.84c2-2.24,4.75-3.41,8.29-3.51v31.39
		c0,2.74-0.38,4.52-1.18,5.34c-0.68,0.7-1.83,1.13-3.45,1.29c-0.48,0.04-1.3,0.06-2.46,0.06v2.4h20.99v-2.4
		c-1.16,0-1.98-0.02-2.46-0.06c-1.62-0.16-2.77-0.59-3.45-1.29c-0.8-0.82-1.19-2.6-1.19-5.34V2.04c3.54,0.1,6.3,1.27,8.3,3.51
		c1.9,2.14,3.06,5.42,3.48,9.84L34.87,15L34.44,0H0.43z"/>
	<polygon class="st0" points="8.61,19.56 4.62,19.56 0,19.56 0,28.17 8.61,28.17 	"/>
</g>
</svg>
